<svg width="18" height="19" viewBox="0 0 18 19" fill="none" xmlns="http://www.w3.org/2000/svg">
<path d="M9.75 17.75H8.25V17H7.5V16.25H6.75V15.5H6V14.75H5.25V14H4.5V13.25H3.75V12.5H3V11.75H2.25V11H1.5V10.25H0.75V9.5H1.5V8.75H2.25V8H3V8.75H3.75V9.5H4.5V10.25H5.25V11H6V11.75H6.75V12.5H7.5V1.25H10.5V12.5H11.25V11.75H12V11H12.75V10.25H13.5V9.5H14.25V8.75H15V8H15.75V8.75H16.5V9.5H17.25V10.25H16.5V11H15.75V11.75H15V12.5H14.25V13.25H13.5V14H12.75V14.75H12V15.5H11.25V16.25H10.5V17H9.75V17.75Z" fill="#989DA2"/>
</svg>
