<svg width="16" height="18" viewBox="0 0 16 18" fill="none" xmlns="http://www.w3.org/2000/svg">
<g clip-path="url(#clip0_2303_1461)">
<path d="M15.9999 10.3799H15.2349V13.4249H15.9999V10.3799Z" fill="#989DA2"/>
<path d="M15.2351 13.425H14.4751V14.19H15.2351V13.425Z" fill="#989DA2"/>
<path d="M13.7148 8.85508V9.62008H14.4748V10.3801H15.2348V7.33008H14.4748V8.85508H13.7148Z" fill="#989DA2"/>
<path d="M14.4748 14.1899H13.7148V14.9499H14.4748V14.1899Z" fill="#989DA2"/>
<path d="M14.4748 5.04492H13.7148V7.32992H14.4748V5.04492Z" fill="#989DA2"/>
<path d="M13.715 9.62012H10.665V10.3801H12.95V11.1401H12.19V11.9051H11.425V12.6651H10.665V10.3801H9.90503V13.4251H10.665V14.1901H13.715V13.4251H14.475V10.3801H13.715V9.62012Z" fill="#989DA2"/>
<path d="M13.715 2.76001H12.95V5.04501H13.715V2.76001Z" fill="#989DA2"/>
<path d="M13.715 14.95H10.665V15.715H13.715V14.95Z" fill="#989DA2"/>
<path d="M13.715 8.09497H10.665V8.85497H13.715V8.09497Z" fill="#989DA2"/>
<path d="M10.665 14.1899H9.90503V14.9499H10.665V14.1899Z" fill="#989DA2"/>
<path d="M10.665 8.85498H9.90503V9.61998H10.665V8.85498Z" fill="#989DA2"/>
<path d="M12.9501 2H9.14014V2.76H12.9501V2Z" fill="#989DA2"/>
<path d="M9.90514 13.425H9.14014V14.19H9.90514V13.425Z" fill="#989DA2"/>
<path d="M9.13988 10.3801H9.90488V9.62012H8.37988V13.4251H9.13988V10.3801Z" fill="#989DA2"/>
<path d="M9.90497 6.57006H9.13997V5.81006H6.85497V6.57006H6.09497V7.33006H6.85497V8.09506H9.13997V7.33006H9.90497V6.57006Z" fill="#989DA2"/>
<path d="M8.38012 8.85498H7.62012V9.61998H8.38012V8.85498Z" fill="#989DA2"/>
<path d="M6.85498 5.04501H9.13998V2.76001H8.37998V4.28501H7.61998V2.76001H6.85498V5.04501Z" fill="#989DA2"/>
<path d="M6.85497 13.425H6.09497V14.19H6.85497V13.425Z" fill="#989DA2"/>
<path d="M6.09497 10.3801H6.85497V13.4251H7.61997V9.62012H6.09497V10.3801Z" fill="#989DA2"/>
<path d="M6.09508 14.1899H5.33008V14.9499H6.09508V14.1899Z" fill="#989DA2"/>
<path d="M6.09508 8.85498H5.33008V9.61998H6.09508V8.85498Z" fill="#989DA2"/>
<path d="M5.3299 9.62012H2.2849V10.3801H4.5699V11.1401H3.8099V11.9051H3.0449V12.6651H2.2849V10.3801H1.5249V13.4251H2.2849V14.1901H5.3299V13.4251H6.0949V10.3801H5.3299V9.62012Z" fill="#989DA2"/>
<path d="M5.33016 14.95H2.28516V15.715H5.33016V14.95Z" fill="#989DA2"/>
<path d="M6.85492 2H3.04492V2.76H6.85492V2Z" fill="#989DA2"/>
<path d="M5.33016 8.09497H2.28516V8.85497H5.33016V8.09497Z" fill="#989DA2"/>
<path d="M3.04516 2.76001H2.28516V5.04501H3.04516V2.76001Z" fill="#989DA2"/>
<path d="M2.2849 14.1899H1.5249V14.9499H2.2849V14.1899Z" fill="#989DA2"/>
<path d="M2.2849 5.04492H1.5249V7.32992H2.2849V5.04492Z" fill="#989DA2"/>
<path d="M1.52501 13.425H0.76001V14.19H1.52501V13.425Z" fill="#989DA2"/>
<path d="M1.52501 9.62008H2.28501V8.85508H1.52501V7.33008H0.76001V10.3801H1.52501V9.62008Z" fill="#989DA2"/>
<path d="M0.76 10.3799H0V13.4249H0.76V10.3799Z" fill="#989DA2"/>
</g>
<defs>
<clipPath id="clip0_2303_1461">
<rect width="15.9999" height="17.715" fill="white"/>
</clipPath>
</defs>
</svg>
