<svg width="28" height="28" viewBox="0 0 28 28" fill="none" xmlns="http://www.w3.org/2000/svg">
<path d="M26.8333 3.49998V12.8333H25.6666V15.1666H23.3333V16.3333H21V17.5H23.3333V18.6666H24.5V22.1666H23.3333V23.3333H22.1666V24.5H19.8333V25.6666H17.5V24.5H16.3333V23.3333H15.1666V21H12.8333V23.3333H11.6666V24.5H10.5V25.6666H8.16663V24.5H5.83329V23.3333H4.66663V22.1666H3.49996V18.6666H4.66663V17.5H6.99996V16.3333H4.66663V15.1666H2.33329V12.8333H1.16663V3.49998H2.33329V2.33331H4.66663V3.49998H6.99996V4.66665H8.16663V5.83331H9.33329V6.99998H10.5V8.16665H11.6666V10.5H12.8333V11.6666H15.1666V10.5H16.3333V8.16665H17.5V6.99998H18.6666V5.83331H19.8333V4.66665H21V3.49998H23.3333V2.33331H25.6666V3.49998H26.8333Z" fill="#989DA2"/>
</svg>
