<svg width="54" height="54" viewBox="0 0 54 54" fill="none" xmlns="http://www.w3.org/2000/svg">
<path d="M51.4349 14.1413H48.853V45.0056H51.4349V14.1413Z" fill="white"/>
<path d="M48.8531 45.0056H43.7231V47.5706H48.8531V45.0056Z" fill="white"/>
<path d="M43.723 42.4238H38.5762V45.0056H43.723V42.4238Z" fill="white"/>
<path d="M38.5761 39.8588H30.8643V42.4238H38.5761V39.8588Z" fill="white"/>
<path d="M41.1411 27H33.4292V29.565H41.1411V27Z" fill="white"/>
<path d="M41.1411 19.2881H33.4292V21.8531H41.1411V19.2881Z" fill="white"/>
<path d="M41.1411 11.5763H33.4292V14.1413H41.1411V11.5763Z" fill="white"/>
<path d="M43.723 6.42938H30.8643V8.99438H43.723V6.42938Z" fill="white"/>
<path d="M33.4293 21.8531H30.8643V24.435H33.4293V21.8531Z" fill="white"/>
<path d="M33.4293 14.1413H30.8643V16.7231H33.4293V14.1413Z" fill="white"/>
<path d="M30.8643 8.99438H28.2825V11.5763H30.8643V8.99438Z" fill="white"/>
<path d="M30.8642 42.4238H23.1523V45.0056H30.8642V42.4238Z" fill="white"/>
<path d="M25.7173 8.99438H23.1523V11.5763H25.7173V8.99438Z" fill="white"/>
<path d="M23.1523 39.8588H15.4236V42.4238H23.1523V39.8588Z" fill="white"/>
<path d="M23.1524 21.8531H20.5706V24.435H23.1524V21.8531Z" fill="white"/>
<path d="M23.1524 14.1413H20.5706V16.7231H23.1524V14.1413Z" fill="white"/>
<path d="M20.5705 27H12.8586V29.565H20.5705V27Z" fill="white"/>
<path d="M20.5705 19.2881H12.8586V21.8531H20.5705V19.2881Z" fill="white"/>
<path d="M20.5705 11.5763H12.8586V14.1413H20.5705V11.5763Z" fill="white"/>
<path d="M23.1525 6.42938H10.2937V8.99438H23.1525V6.42938Z" fill="white"/>
<path d="M15.4237 42.4238H10.2937V45.0056H15.4237V42.4238Z" fill="white"/>
<path d="M23.1524 34.7119V32.1469H15.4236V34.7119H10.2936V8.99438H7.71173V11.5763H5.14673V14.1413H7.71173V39.8588H15.4236V37.2938H23.1524V39.8588H30.8642V37.2938H38.5761V39.8588H46.288V14.1413H48.853V11.5763H46.288V8.99438H43.723V34.7119H38.5761V32.1469H30.8642V34.7119H28.2824V11.5763H25.7174V34.7119H23.1524Z" fill="white"/>
<path d="M10.2936 45.0056H5.14673V47.5706H10.2936V45.0056Z" fill="white"/>
<path d="M5.14682 14.1413H2.56494V45.0056H5.14682V14.1413Z" fill="white"/>
</svg>
