<svg width="46" height="46" viewBox="0 0 46 46" fill="none" xmlns="http://www.w3.org/2000/svg">
<path d="M17.5231 32.854V30.669H19.7081V32.854H30.6619V30.669H32.8469V24.0997H30.6619V21.9003H19.7081V24.0997H17.5231V21.9003H2.185V24.0997H0V19.7153H8.75438V17.5375H10.9394V19.7225H24.0925V17.5375H26.2775V15.3381H24.0925V13.1459H10.9394V15.3309H8.75438V8.76874H10.9394V10.9537H24.0925V8.76874H26.2775V10.9537H43.8006V13.1531H46V19.7225H43.8006V21.9075H41.6156V24.1069H39.4163V21.9075H35.0463V24.1069H37.2313V30.6762H35.0463V32.8612H39.4163V30.6762H41.6156V32.8612H43.8006V35.0606H46V41.63H43.8006V43.815H0V39.4306H2.185V41.63H19.7081V39.4306H21.8931V37.2456H19.7081V35.0606H2.185V37.2456H0V30.6762H2.185V32.8612L17.5231 32.854ZM37.2313 17.5375H41.6156V15.3381H37.2313V17.5375ZM26.2775 37.2456H28.4625V39.4306H26.2775V41.63H28.4625V39.4306H30.6619V37.2456H28.4625V35.0606H26.2775V37.2456Z" fill="white"/>
<path d="M2.18512 24.0997H4.37012V30.669H2.18512V24.0997Z" fill="white"/>
<path d="M2.18507 37.2385H17.5232V39.4235H2.18507V37.2385Z" fill="white"/>
<path d="M6.56936 28.4697H15.3237V30.6691H6.56936V28.4697Z" fill="white"/>
<path d="M6.56936 24.0997H15.3237V26.2847H6.56936V24.0997Z" fill="white"/>
<path d="M10.9393 15.3309H21.8931V17.5303H10.9393V15.3309Z" fill="white"/>
<path d="M10.9393 6.5766H21.8931V8.7616H10.9393V6.5766Z" fill="white"/>
<path d="M19.7081 24.0997H21.8931V30.669H19.7081V24.0997Z" fill="white"/>
<path d="M26.2774 6.5766H28.4624V8.7616H26.2774V6.5766Z" fill="white"/>
<path d="M37.2313 6.5766H41.6157V8.7616H37.2313V6.5766Z" fill="white"/>
<path d="M26.2774 4.3772V6.57657H24.0924V4.3772H10.9393V6.57657H8.75429V2.1922H43.8005V4.3772H26.2774Z" fill="white"/>
<path d="M41.6155 24.0997H43.8005V30.669H41.6155V24.0997Z" fill="white"/>
<path d="M43.8006 4.3772H46V10.9466H43.8006V4.3772Z" fill="white"/>
</svg>
