<svg width="24" height="24" viewBox="0 0 24 24" fill="none" xmlns="http://www.w3.org/2000/svg">
<g clip-path="url(#clip0_494_680)">
<path d="M24 18.8586H22.86V19.9986H24V18.8586Z" fill="white"/>
<path d="M24 10.8562V8.56871H22.86V9.71621H21.7125V7.42871H20.5725V12.0037H19.425V10.8562H18.285V13.1437H20.5725V16.5712H14.8575V17.7187H24V16.5712H21.7125V10.8562H24Z" fill="white"/>
<path d="M24 0.57373H21.7125V1.71373H24V0.57373Z" fill="white"/>
<path d="M20.5725 18.8586H19.425V19.9986H20.5725V18.8586Z" fill="white"/>
<path d="M20.5725 2.86133H18.285V4.00133H20.5725V2.86133Z" fill="white"/>
<path d="M15.9975 18.8586H14.8575V19.9986H15.9975V18.8586Z" fill="white"/>
<path d="M14.8576 7.42872H11.4301V8.56872H14.8576V9.71622H15.9976V4.00122H14.8576V7.42872Z" fill="white"/>
<path d="M10.2825 12.0037H8.00249V13.1437H10.2825V14.2837H8.00249V13.1437H6.85499V17.7187H10.2825V18.8587H6.85499V19.9987H3.42749V21.15H4.57499V23.43H6.85499V22.29H5.71499V21.15H9.14249V20.0025H10.2825V21.15H12.57V20.0025H11.43V15.435H12.57V16.575H13.7175V14.2875H11.43V10.86H14.8575V9.71997H10.2825V12.0037ZM10.2825 16.5712H8.00249V15.4312H10.2825V16.5712Z" fill="white"/>
<path d="M10.2824 0.57373H8.00244V1.71373H10.2824V0.57373Z" fill="white"/>
<path d="M8.00248 5.14111H6.85498V7.42861H8.00248V5.14111Z" fill="white"/>
<path d="M14.8575 2.86133H5.71497V4.00133H14.8575V2.86133Z" fill="white"/>
<path d="M6.85497 17.7188H5.71497V18.8588H6.85497V17.7188Z" fill="white"/>
<path d="M5.71495 4.00122H4.57495V12.0037H5.71495V4.00122Z" fill="white"/>
<path d="M4.57499 12.0037H3.42749V15.4312H4.57499V12.0037Z" fill="white"/>
<path d="M3.42748 18.8586H2.28748V19.9986H3.42748V18.8586Z" fill="white"/>
<path d="M3.42748 15.4312H2.28748V16.5712H3.42748V15.4312Z" fill="white"/>
<path d="M2.28751 17.7188H1.14001V18.8588H2.28751V17.7188Z" fill="white"/>
<path d="M2.2875 4.00122H0V5.14122H2.2875V4.00122Z" fill="white"/>
<path d="M1.14 15.4313H2.2875V14.2838H1.14V13.1438H0V17.7188H1.14V15.4313Z" fill="white"/>
</g>
<defs>
<clipPath id="clip0_494_680">
<rect width="24" height="24" fill="white"/>
</clipPath>
</defs>
</svg>
