<svg width="32" height="24" viewBox="0 0 32 24" fill="none" xmlns="http://www.w3.org/2000/svg">
<path d="M29.3337 6V8H28.0003V9H26.667V10H25.3337V11H24.0003V12H22.667V13H21.3337V14H20.0003V15H18.667V16H17.3337V17H14.667V16H13.3337V15H12.0003V14H10.667V13H9.33366V12H8.00033V11H6.66699V10H5.33366V9H4.00033V8H2.66699V6H5.33366V7H6.66699V8H8.00033V9H9.33366V10H10.667V11H12.0003V12H13.3337V13H14.667V14H17.3337V13H18.667V12H20.0003V11H21.3337V10H22.667V9H24.0003V8H25.3337V7H26.667V6H29.3337Z" fill="#989DA2"/>
</svg>
