<svg width="24" height="24" viewBox="0 0 24 24" fill="none" xmlns="http://www.w3.org/2000/svg">
<path d="M22.8591 9.14318V8.00318H21.7116V6.85568H20.5716V4.57568H19.4316V13.7182H20.5716V12.5707H21.7116V11.4307H22.8591V21.7132H23.9991V9.14318H22.8591Z" fill="white"/>
<path d="M22.8594 21.7134H21.7119V22.8609H22.8594V21.7134Z" fill="#CCD3D9"/>
<path d="M21.7121 22.8594H2.28711V23.9994H21.7121V22.8594Z" fill="#CCD3D9"/>
<path d="M19.4327 13.7163H18.2852V14.8563H19.4327V13.7163Z" fill="#CCD3D9"/>
<path d="M18.2845 19.4321H17.1445V20.5721H18.2845V19.4321Z" fill="#CCD3D9"/>
<path d="M18.2845 14.8569H17.1445V15.9969H18.2845V14.8569Z" fill="#CCD3D9"/>
<path d="M17.1446 18.2837H15.9971V19.4312H17.1446V18.2837Z" fill="#CCD3D9"/>
<path d="M17.1446 15.9976H15.9971V17.1451H17.1446V15.9976Z" fill="#CCD3D9"/>
<path d="M17.1446 8.00244H15.9971V11.4299H17.1446V8.00244Z" fill="#FFBEA2"/>
<path d="M15.9974 6.854H14.8574V8.0015H15.9974V6.854Z" fill="#E38E6A"/>
<path d="M15.997 17.146H8.00195V18.286H15.997V17.146Z" fill="#CCD3D9"/>
<path d="M15.9968 11.4302H13.7168V12.5702H15.9968V11.4302Z" fill="#E38E6A"/>
<path d="M13.7166 8.00244H10.2891V9.14244H12.5691V11.4299H13.7166V8.00244Z" fill="#FFBEA2"/>
<path d="M12.5691 11.4302H10.2891V12.5702H12.5691V11.4302Z" fill="#E38E6A"/>
<path d="M14.8576 5.71631H9.14258V6.85631H14.8576V5.71631Z" fill="#FFBEA2"/>
<path d="M14.8576 13.7163H9.14258V14.8563H14.8576V13.7163Z" fill="#FFBEA2"/>
<path d="M10.2901 9.14307H9.14258V11.4306H10.2901V9.14307Z" fill="#E38E6A"/>
<path d="M9.14195 12.5703H8.00195V13.7178H9.14195V12.5703Z" fill="#E38E6A"/>
<path d="M9.14195 6.854H8.00195V8.0015H9.14195V6.854Z" fill="#FFBEA2"/>
<path d="M8.00199 18.2837H6.85449V19.4312H8.00199V18.2837Z" fill="#CCD3D9"/>
<path d="M8.00199 15.9976H6.85449V17.1451H8.00199V15.9976Z" fill="#CCD3D9"/>
<path d="M8.00199 8.00244H6.85449V12.5699H8.00199V8.00244Z" fill="#FFBEA2"/>
<path d="M6.85484 19.4321H5.71484V20.5721H6.85484V19.4321Z" fill="#CCD3D9"/>
<path d="M6.85484 14.8569H5.71484V15.9969H6.85484V14.8569Z" fill="#CCD3D9"/>
<path d="M19.4317 4.575V3.4275H17.1442V2.2875H15.9967V1.14H14.8567V0H9.14172V1.14H8.00172V2.2875H6.85422V3.4275H4.57422V4.575H19.4317Z" fill="white"/>
<path d="M5.71422 13.7163H4.57422V14.8563H5.71422V13.7163Z" fill="#CCD3D9"/>
<path d="M2.28715 21.7134H1.13965V22.8609H2.28715V21.7134Z" fill="#CCD3D9"/>
<path d="M1.14 11.4307H2.2875V12.5707H3.4275V13.7182H4.575V4.57568H3.4275V6.85568H2.2875V8.00318H1.14V9.14318H0V21.7132H1.14V11.4307Z" fill="white"/>
</svg>
