<svg width="24" height="24" viewBox="0 0 24 24" fill="none" xmlns="http://www.w3.org/2000/svg">
<path d="M21.7162 13.71H20.5687V19.425H21.7162V13.71Z" fill="white"/>
<path d="M20.5687 19.425H19.4287V21.7125H20.5687V19.425Z" fill="white"/>
<path d="M20.5687 11.4226H19.4287V13.7101H20.5687V11.4226Z" fill="white"/>
<path d="M19.4287 21.7124H18.2887V22.8524H19.4287V21.7124Z" fill="white"/>
<path d="M19.4287 10.2825H18.2887V11.4225H19.4287V10.2825Z" fill="white"/>
<path d="M18.2887 13.71H17.1412V14.8575H18.2887V13.71Z" fill="white"/>
<path d="M18.2887 9.14258H17.1412V10.2826H18.2887V9.14258Z" fill="white"/>
<path d="M18.2887 22.8525H5.71118V24H18.2887V22.8525Z" fill="white"/>
<path d="M17.1411 7.99512H14.8536V9.14262H17.1411V7.99512Z" fill="white"/>
<path d="M14.8537 11.4226H13.7137V12.5701H14.8537V11.4226Z" fill="white"/>
<path d="M12.5736 14.8574H11.4261V15.9974H12.5736V14.8574Z" fill="white"/>
<path d="M10.2862 11.4226H9.14624V12.5701H10.2862V11.4226Z" fill="white"/>
<path d="M10.2862 1.14H13.7137V7.995H14.8537V1.14H16.0012V0H7.99866V1.14H9.14616V7.995H10.2862V1.14Z" fill="white"/>
<path d="M9.14614 7.99512H6.85864V9.14262H9.14614V7.99512Z" fill="white"/>
<path d="M7.99864 13.71H6.85864V14.8575H7.99864V13.71Z" fill="white"/>
<path d="M5.71117 20.5651H6.85867V21.7126H17.1412V20.5651H18.2887V19.4251H19.4287V17.1376H18.2887V15.9976H16.0012V17.1376H14.8537V18.2851H11.4262V17.1376H9.14617V15.9976H5.71117V17.1376H4.57117V19.4251H5.71117V20.5651Z" fill="white"/>
<path d="M6.85868 9.14258H5.71118V10.2826H6.85868V9.14258Z" fill="white"/>
<path d="M5.71117 21.7124H4.57117V22.8524H5.71117V21.7124Z" fill="white"/>
<path d="M5.71117 10.2825H4.57117V11.4225H5.71117V10.2825Z" fill="white"/>
<path d="M4.57115 19.425H3.43115V21.7125H4.57115V19.425Z" fill="white"/>
<path d="M4.57115 11.4226H3.43115V13.7101H4.57115V11.4226Z" fill="white"/>
<path d="M3.43119 13.71H2.28369V19.425H3.43119V13.71Z" fill="white"/>
</svg>
