<svg width="24" height="24" viewBox="0 0 24 24" fill="none" xmlns="http://www.w3.org/2000/svg">
<g clip-path="url(#clip0_494_837)">
<path d="M21.72 4.575V0H10.29V1.14H5.715V2.2875H2.2875V10.29H1.1475V12.57H0V24H24V4.575H21.72ZM5.715 22.86H1.1475V15.9975H5.715V22.86ZM5.715 14.8575H3.435V3.4275H5.715V14.8575ZM6.8625 2.2875H10.29V3.4275H8.0025V14.8575H6.8625V2.2875ZM10.29 4.575V14.8575H9.15V4.575H10.29ZM11.43 22.86H6.8625V15.9975H11.43V22.86ZM22.86 22.86H12.5775V14.8575H11.43V1.14H20.5725V4.575H17.145V5.715H22.86V22.86Z" fill="white"/>
<path d="M20.5725 15.9976H19.4325V17.1451H20.5725V15.9976Z" fill="white"/>
<path d="M20.5725 13.7175H19.4325V14.8575H20.5725V13.7175Z" fill="white"/>
<path d="M19.4325 17.145H17.145V18.285H19.4325V17.145Z" fill="white"/>
<path d="M17.145 15.9976H16.005V17.1451H17.145V15.9976Z" fill="white"/>
<path d="M17.145 13.7175H16.005V14.8575H17.145V13.7175Z" fill="white"/>
<path d="M17.145 5.71509H16.005V8.00259H17.145V5.71509Z" fill="white"/>
<path d="M16.005 8.00244H14.8575V10.2899H16.005V8.00244Z" fill="white"/>
<path d="M14.8575 10.29H13.7175V12.57H14.8575V10.29Z" fill="white"/>
<path d="M14.8575 2.2876H13.7175V3.4276H14.8575V2.2876Z" fill="white"/>
<path d="M13.7175 12.5701H12.5775V14.8576H13.7175V12.5701Z" fill="white"/>
<path d="M10.2899 18.2849H8.00244V20.5724H10.2899V18.2849Z" fill="white"/>
<path d="M4.57498 18.2849H2.28748V20.5724H4.57498V18.2849Z" fill="white"/>
</g>
<defs>
<clipPath id="clip0_494_837">
<rect width="24" height="24" fill="white"/>
</clipPath>
</defs>
</svg>
