<svg width="28" height="28" viewBox="0 0 28 28" fill="none" xmlns="http://www.w3.org/2000/svg">
<path d="M26.8333 10.5V17.5H25.6666V19.8334H24.5V22.1667H23.3333V23.3334H22.1666V24.5H21V25.6667H18.6666V26.8334H17.5V21H16.3333V19.8334H17.5V18.6667H19.8333V17.5H21V16.3334H22.1666V10.5H21V7.00002H18.6666V8.16669H17.5V9.33335H16.3333V8.16669H11.6666V9.33335H10.5V8.16669H9.33329V7.00002H6.99996V10.5H5.83329V16.3334H6.99996V17.5H8.16663V18.6667H10.5V21H8.16663V19.8334H6.99996V18.6667H4.66663V19.8334H5.83329V22.1667H6.99996V23.3334H10.5V26.8334H9.33329V25.6667H6.99996V24.5H5.83329V23.3334H4.66663V22.1667H3.49996V19.8334H2.33329V17.5H1.16663V10.5H2.33329V8.16669H3.49996V5.83335H4.66663V4.66669H5.83329V3.50002H8.16663V2.33335H10.5V1.16669H17.5V2.33335H19.8333V3.50002H22.1666V4.66669H23.3333V5.83335H24.5V8.16669H25.6666V10.5H26.8333Z" fill="#989DA2"/>
</svg>
