<svg width="29" height="28" viewBox="0 0 29 28" fill="none" xmlns="http://www.w3.org/2000/svg">
<path d="M27.3337 10.4998V17.4998H26.167V19.8332H25.0003V22.1665H23.8337V23.3332H22.667V24.4998H21.5003V25.6665H19.167V26.8332H18.0003V20.9998H16.8337V19.8332H18.0003V18.6665H20.3337V17.4998H21.5003V16.3332H22.667V10.4998H21.5003V6.99984H19.167V8.1665H18.0003V9.33317H16.8337V8.1665H12.167V9.33317H11.0003V8.1665H9.83366V6.99984H7.50033V10.4998H6.33366V16.3332H7.50033V17.4998H8.66699V18.6665H11.0003V20.9998H8.66699V19.8332H7.50033V18.6665H5.16699V19.8332H6.33366V22.1665H7.50033V23.3332H11.0003V26.8332H9.83366V25.6665H7.50033V24.4998H6.33366V23.3332H5.16699V22.1665H4.00033V19.8332H2.83366V17.4998H1.66699V10.4998H2.83366V8.1665H4.00033V5.83317H5.16699V4.6665H6.33366V3.49984H8.66699V2.33317H11.0003V1.1665H18.0003V2.33317H20.3337V3.49984H22.667V4.6665H23.8337V5.83317H25.0003V8.1665H26.167V10.4998H27.3337Z" fill="white"/>
</svg>
