<svg width="28" height="28" viewBox="0 0 28 28" fill="none" xmlns="http://www.w3.org/2000/svg">
<path d="M19.8333 10.5V9.33333H18.6667V8.16667H17.5V7H10.5V8.16667H9.33333V9.33333H8.16667V10.5H7V17.5H8.16667V18.6667H9.33333V19.8333H10.5V21H17.5V19.8333H18.6667V18.6667H19.8333V17.5H21V10.5H19.8333ZM18.6667 16.3333H17.5V17.5H16.3333V18.6667H11.6667V17.5H10.5V16.3333H9.33333V11.6667H10.5V10.5H11.6667V9.33333H16.3333V10.5H17.5V11.6667H18.6667V16.3333Z" fill="#989DA2"/>
<path d="M25.6666 5.83335V3.50002H24.5V2.33335H22.1666V1.16669H5.83329V2.33335H3.49996V3.50002H2.33329V5.83335H1.16663V22.1667H2.33329V24.5H3.49996V25.6667H5.83329V26.8334H22.1666V25.6667H24.5V24.5H25.6666V22.1667H26.8333V5.83335H25.6666ZM24.5 22.1667H23.3333V23.3334H22.1666V24.5H5.83329V23.3334H4.66663V22.1667H3.49996V5.83335H4.66663V4.66669H5.83329V3.50002H22.1666V4.66669H23.3333V5.83335H24.5V22.1667Z" fill="#989DA2"/>
<path d="M22.1667 5.83331H19.8334V8.16665H22.1667V5.83331Z" fill="#989DA2"/>
</svg>
