<svg width="29" height="28" viewBox="0 0 29 28" fill="none" xmlns="http://www.w3.org/2000/svg">
<path d="M20.3333 10.5V9.33333H19.1667V8.16667H18V7H11V8.16667H9.83333V9.33333H8.66667V10.5H7.5V17.5H8.66667V18.6667H9.83333V19.8333H11V21H18V19.8333H19.1667V18.6667H20.3333V17.5H21.5V10.5H20.3333ZM19.1667 16.3333H18V17.5H16.8333V18.6667H12.1667V17.5H11V16.3333H9.83333V11.6667H11V10.5H12.1667V9.33333H16.8333V10.5H18V11.6667H19.1667V16.3333Z" fill="white"/>
<path d="M26.167 5.83317V3.49984H25.0003V2.33317H22.667V1.1665H6.33366V2.33317H4.00033V3.49984H2.83366V5.83317H1.66699V22.1665H2.83366V24.4998H4.00033V25.6665H6.33366V26.8332H22.667V25.6665H25.0003V24.4998H26.167V22.1665H27.3337V5.83317H26.167ZM25.0003 22.1665H23.8337V23.3332H22.667V24.4998H6.33366V23.3332H5.16699V22.1665H4.00033V5.83317H5.16699V4.6665H6.33366V3.49984H22.667V4.6665H23.8337V5.83317H25.0003V22.1665Z" fill="white"/>
<path d="M22.6663 5.8335H20.333V8.16683H22.6663V5.8335Z" fill="white"/>
</svg>
