<svg width="24" height="24" viewBox="0 0 24 24" fill="none" xmlns="http://www.w3.org/2000/svg">
<g clip-path="url(#clip0_681_198)">
<path d="M24 6.86255H22.8525V8.00255H24V6.86255Z" fill="white"/>
<path d="M24 3.42749H22.8525V4.57499H24V3.42749Z" fill="white"/>
<path d="M24 0H22.8525V1.1475H24V0Z" fill="white"/>
<path d="M22.8525 10.29H21.7125V11.43H22.8525V10.29Z" fill="white"/>
<path d="M22.8525 4.57495H21.7125V5.71495H22.8525V4.57495Z" fill="white"/>
<path d="M22.8525 1.14746H21.7125V2.28746H22.8525V1.14746Z" fill="white"/>
<path d="M21.7125 11.4301H20.5725V12.5776H21.7125V11.4301Z" fill="white"/>
<path d="M21.7125 5.71497H20.5725V6.86247H21.7125V5.71497Z" fill="white"/>
<path d="M21.7125 2.28748H20.5725V3.42748H21.7125V2.28748Z" fill="white"/>
<path d="M20.5725 12.5775H19.425V14.8575H20.5725V12.5775Z" fill="white"/>
<path d="M20.5725 8.00244H19.425V9.14244H20.5725V8.00244Z" fill="white"/>
<path d="M20.5725 3.42749H19.425V4.57499H20.5725V3.42749Z" fill="white"/>
<path d="M20.5725 0H19.425V1.1475H20.5725V0Z" fill="white"/>
<path d="M19.425 14.8575H18.285V17.145H19.425V14.8575Z" fill="white"/>
<path d="M19.425 9.14246H18.285V10.29H19.425V9.14246Z" fill="white"/>
<path d="M19.425 4.57495H18.285V5.71495H19.425V4.57495Z" fill="white"/>
<path d="M19.425 1.14746H18.285V2.28746H19.425V1.14746Z" fill="white"/>
<path d="M18.285 17.145H17.1375V19.4325H18.285V17.145Z" fill="white"/>
<path d="M18.285 2.28748H17.1375V3.42748H18.285V2.28748Z" fill="white"/>
<path d="M17.1376 11.4301H15.9976V12.5776H17.1376V11.4301Z" fill="white"/>
<path d="M17.1376 6.86255H15.9976V8.00255H17.1376V6.86255Z" fill="white"/>
<path d="M17.1376 0H15.9976V1.1475H17.1376V0Z" fill="white"/>
<path d="M17.1375 19.4325H14.8575V20.5725H17.1375V19.4325Z" fill="white"/>
<path d="M15.9975 3.42749H14.8575V4.57499H15.9975V3.42749Z" fill="white"/>
<path d="M15.9975 1.14746H14.8575V2.28746H15.9975V1.14746Z" fill="white"/>
<path d="M14.8575 20.5725H13.71V21.72H14.8575V20.5725Z" fill="white"/>
<path d="M14.8575 9.14246H13.71V10.29H14.8575V9.14246Z" fill="white"/>
<path d="M13.7099 5.71497H12.5699V6.86247H13.7099V5.71497Z" fill="white"/>
<path d="M13.7099 1.14746H12.5699V2.28746H13.7099V1.14746Z" fill="white"/>
<path d="M13.7101 21.72H11.4301V22.86H13.7101V21.72Z" fill="white"/>
<path d="M12.5701 6.86255H11.4301V8.00255H12.5701V6.86255Z" fill="white"/>
<path d="M12.57 2.28748H10.2825V3.42748H12.57V2.28748Z" fill="white"/>
<path d="M11.43 22.86H6.85498V24H11.43V22.86Z" fill="white"/>
<path d="M10.2825 3.42749H9.14246V4.57499H10.2825V3.42749Z" fill="white"/>
<path d="M9.14248 4.57495H6.85498V5.71495H9.14248V4.57495Z" fill="white"/>
<path d="M11.43 20.5725V19.4325H12.57V18.285H13.71V17.145H14.8575V12.5775H13.71V11.43H12.57V10.29H11.43V9.14246H6.85499V10.29H5.71499V11.43H4.56749V12.5775H3.42749V17.145H4.56749V18.285H5.71499V19.4325H6.85499V20.5725H11.43ZM9.14249 11.43H11.43V12.5775H12.57V13.7175H13.71V16.005H12.57V13.7175H11.43V12.5775H9.14249V11.43Z" fill="white"/>
<path d="M6.85499 21.72H3.42749V22.86H6.85499V21.72Z" fill="white"/>
<path d="M6.85501 5.71497H4.5675V6.86247H6.85501V5.71497Z" fill="white"/>
<path d="M4.56749 6.86255H3.42749V8.00255H4.56749V6.86255Z" fill="white"/>
<path d="M3.42748 20.5725H2.28748V21.72H3.42748V20.5725Z" fill="white"/>
<path d="M3.42748 8.00244H2.28748V9.14244H3.42748V8.00244Z" fill="white"/>
<path d="M2.28751 18.285H1.14001V20.5725H2.28751V18.285Z" fill="white"/>
<path d="M2.28751 9.14246H1.14001V11.43H2.28751V9.14246Z" fill="white"/>
<path d="M1.14 11.4301H0V18.2851H1.14V11.4301Z" fill="white"/>
</g>
<defs>
<clipPath id="clip0_681_198">
<rect width="24" height="24" fill="white"/>
</clipPath>
</defs>
</svg>
