<svg width="64" height="64" viewBox="0 0 64 64" fill="none" xmlns="http://www.w3.org/2000/svg">
<g clip-path="url(#clip0_780_922)">
<path d="M64 57.8994H60.96V63.9994H64V57.8994Z" fill="white"/>
<path d="M64 21.3394H60.96V24.3794H64V21.3394Z" fill="white"/>
<path d="M60.9599 51.8193H57.9199V57.8993H60.9599V51.8193Z" fill="white"/>
<path d="M60.9599 18.2798H57.9199V21.3398H60.9599V18.2798Z" fill="#CACACA"/>
<path d="M57.9194 45.7192H54.8594V51.8192H57.9194V45.7192Z" fill="white"/>
<path d="M60.9593 24.3799H51.8193V27.4399H60.9593V24.3799Z" fill="#CACACA"/>
<path d="M57.9203 15.2397H54.8604V18.2797H57.9203V15.2397Z" fill="white"/>
<path d="M51.8198 39.6195V33.5195H48.7798L48.7798 27.4395H45.7198V21.3395H42.6798V18.2795H39.6198V12.1995L51.8198 12.1995V9.13951L48.7798 9.13951V6.09951L45.7198 6.09951V9.13951H39.6198V3.05951L42.6798 3.05951V-0.000488281L36.5798 -0.000488281V18.2795H33.5398V21.3395L30.4798 21.3395V27.4395H27.4398L27.4398 33.5195H24.3798V39.6195H21.3398V45.7195H27.4398V48.7595H36.5798V45.7195L45.7198 45.7195V42.6795H51.8198V45.7195H54.8598V39.6195H51.8198ZM33.5398 45.7195H30.4798V42.6795H33.5398V45.7195ZM42.6798 42.6795H39.6198V39.6195H36.5798V36.5795H39.6198V39.6195H42.6798V42.6795ZM42.6798 30.4795H39.6198V24.3795H36.5798V21.3395H39.6198V24.3795H42.6798V30.4795ZM48.7798 39.6195H45.7198V36.5795H48.7798V39.6195Z" fill="#B1EEFD"/>
<path d="M39.6198 12.1995V18.2795H36.5798V-0.000488281L42.6798 -0.000488281V3.05951L39.6198 3.05951V9.13951H45.7198V6.09951L48.7798 6.09951V9.13951L51.8198 9.13951V12.1995L39.6198 12.1995Z" fill="#90CEDE"/>
<path d="M54.8593 18.2798H51.8193V21.3398H54.8593V18.2798Z" fill="white"/>
<path d="M51.8203 21.3398H48.7803V24.3798H51.8203V21.3398Z" fill="white"/>
<path d="M45.7197 3.05957L42.6797 3.05957V6.09957H45.7197V3.05957Z" fill="#B1EEFD"/>
<path d="M21.3398 45.7192H18.2998V51.8192H21.3398V45.7192Z" fill="white"/>
<path d="M21.3398 12.1997H18.2998V15.2397H21.3398V12.1997Z" fill="#CACACA"/>
<path d="M18.3002 51.8193H15.2402L15.2402 57.8993H18.3002V51.8193Z" fill="white"/>
<path d="M18.3002 9.13965H15.2402V12.1996H18.3002V9.13965Z" fill="white"/>
<path d="M15.2402 57.8994H12.2002L12.2002 63.9994H15.2402V57.8994Z" fill="white"/>
<path d="M15.2402 48.7598H12.2002V51.8198H15.2402V48.7598Z" fill="white"/>
<path d="M18.2996 15.2397L3.05957 15.2397L3.05957 18.2797L18.2996 18.2797V15.2397Z" fill="#CACACA"/>
<path d="M15.2402 6.09961L9.16016 6.09961V9.13961H15.2402V6.09961Z" fill="white"/>
<path d="M12.2002 45.7192H9.16016V48.7592H12.2002V45.7192Z" fill="white"/>
<path d="M9.15961 48.7598H6.09961L6.09961 51.8198H9.15961V48.7598Z" fill="white"/>
<path d="M9.15957 9.13965L3.05957 9.13965L3.05957 12.1996H9.15957V9.13965Z" fill="#CACACA"/>
<path d="M6.09957 51.8193H3.05957L3.05957 57.8993H6.09957L6.09957 51.8193Z" fill="white"/>
<path d="M3.06 57.8994H0L0 63.9994H3.06L3.06 57.8994Z" fill="white"/>
<path d="M3.06 12.1997H0L0 15.2397H3.06L3.06 12.1997Z" fill="white"/>
</g>
<defs>
<clipPath id="clip0_780_922">
<rect width="64" height="64" fill="white"/>
</clipPath>
</defs>
</svg>
