<svg width="60" height="64" viewBox="0 0 60 64" fill="none" xmlns="http://www.w3.org/2000/svg">
<path d="M51.4407 6.1H54.2907V3.04H57.1407V0H40.0032V3.04H51.4407V6.1Z" fill="white"/>
<path d="M51.4405 6.09998H48.5718V9.13998H51.4405V6.09998Z" fill="white"/>
<path d="M48.5719 9.14001H45.7219V12.2H48.5719V9.14001Z" fill="white"/>
<path d="M45.7218 12.2H42.8718V15.24H45.7218V12.2Z" fill="white"/>
<path d="M42.8719 15.24H40.0032V21.34H42.8719V15.24Z" fill="white"/>
<path d="M42.8719 6.09998H40.0032V9.13998H42.8719V6.09998Z" fill="white"/>
<path d="M40.0031 21.34H37.1531V24.38H40.0031V21.34Z" fill="white"/>
<path d="M40.0031 9.14001H37.1531V12.2H40.0031V9.14001Z" fill="white"/>
<path d="M40.0032 3.03998H34.2844V6.09998H40.0032V3.03998Z" fill="white"/>
<path d="M37.1532 12.2H34.2844V15.24H37.1532V12.2Z" fill="white"/>
<path d="M37.1531 24.38H31.4343V27.44H37.1531V24.38Z" fill="white"/>
<path d="M34.2843 15.24H31.4343V18.28H34.2843V15.24Z" fill="white"/>
<path d="M34.2843 6.09998H31.4343V9.13998H34.2843V6.09998Z" fill="white"/>
<path d="M5.72813 64H31.4344V60.96H34.2844V48.76H31.4344V51.82H17.1469V48.76H11.4375V45.72H5.72813V48.76H2.85938V60.96H5.72813V64ZM8.57812 51.82H11.4375V57.9H17.1562V60.96H11.4375V57.9H8.57812V51.82Z" fill="white"/>
<path d="M31.4345 18.28H28.5845V21.34H31.4345V18.28Z" fill="white"/>
<path d="M31.4345 9.14001H28.5845V12.2H31.4345V9.14001Z" fill="white"/>
<path d="M31.4343 45.72H25.7156V48.76H31.4343V45.72Z" fill="white"/>
<path d="M31.4344 27.44H25.7156V24.38H22.8656V21.34H20.0156V30.48H31.4344V27.44Z" fill="white"/>
<path d="M28.5843 21.34H25.7156V24.38H28.5843V21.34Z" fill="white"/>
<path d="M28.5843 12.2H25.7156V15.24H28.5843V12.2Z" fill="white"/>
<path d="M25.7157 15.24H22.8657V21.34H25.7157V15.24Z" fill="white"/>
<path d="M14.2969 39.62H22.8656V45.72H25.7156V39.62H28.5844V36.58H20.0156V30.48H17.1469V36.58H8.57812V39.62H11.4281V45.72H14.2969V39.62Z" fill="white"/>
</svg>
