<svg width="64" height="64" viewBox="0 0 64 64" fill="none" xmlns="http://www.w3.org/2000/svg">
<g clip-path="url(#clip0_782_1025)">
<path d="M64.0004 57.8999H57.9004V60.9599H64.0004V57.8999Z" fill="#FED474"/>
<path d="M57.9003 60.96H54.8604V64H57.9003V60.96Z" fill="#F67C7C"/>
<path d="M54.8598 39.6205H51.7998V42.6605H54.8598V45.7205H57.8998V30.4805H54.8598V39.6205Z" fill="white"/>
<path d="M54.8598 57.8999H48.7598V60.9599H54.8598V57.8999Z" fill="#F67C7C"/>
<path d="M54.8598 27.4399H51.7998V30.4799H54.8598V27.4399Z" fill="white"/>
<path d="M48.7602 54.8599H42.6602V57.8999H48.7602V54.8599Z" fill="#F67C7C"/>
<path d="M45.7197 42.6602H48.7597V39.6202H51.7997V36.5802H48.7597V27.4402H51.7997V24.3802H48.7597V15.2402H45.7197L45.7197 42.6602Z" fill="white"/>
<path d="M42.6601 60.96H39.6201V64H42.6601V60.96Z" fill="#FAA04C"/>
<path d="M42.6601 36.5801H39.6201V39.6201H42.6601V36.5801Z" fill="white"/>
<path d="M42.6601 30.4805H39.6201V33.5205H42.6601V30.4805Z" fill="white"/>
<path d="M39.6196 54.8599H36.5596V60.9599H39.6196V54.8599Z" fill="#FED474"/>
<path d="M39.6199 48.7598H27.4199V51.8198H39.6199V48.7598Z" fill="white"/>
<path d="M39.6196 3.04004L36.5596 3.04004V6.10004H39.6196V3.04004Z" fill="white"/>
<path d="M36.5605 0L30.4805 0V3.04L36.5605 3.04V0Z" fill="white"/>
<path d="M39.6199 18.2802H36.5599V15.2402L30.4799 15.2402V18.2802H33.5199V21.3402H30.4799V18.2802H27.4199V24.3802H30.4799V27.4402H36.5599V24.3802H39.6199V18.2802Z" fill="#BAF7FF"/>
<path d="M30.4799 54.8599H27.4199V60.9599H30.4799V54.8599Z" fill="#FAA04C"/>
<path d="M21.3193 45.7202H24.3793V48.7602H27.4193V45.7202H39.6193V48.7602H42.6593V45.7202L45.7193 45.7202V42.6602L21.3193 42.6602V45.7202Z" fill="white"/>
<path d="M30.4799 3.04004L27.4199 3.04004V6.10004H30.4799V3.04004Z" fill="white"/>
<path d="M27.4199 60.96H24.3799V64H27.4199V60.96Z" fill="#FED474"/>
<path d="M24.3803 54.8599H18.2803V57.8999H24.3803V54.8599Z" fill="#FED474"/>
<path d="M27.4193 9.1401V6.1001H24.3793V9.1401H21.3193V15.2401H24.3793V12.2001L42.6593 12.2001V15.2401H45.7193V9.1401H42.6593V6.1001L39.6193 6.1001V9.1401L27.4193 9.1401Z" fill="white"/>
<path d="M21.3202 15.2402L18.2802 15.2402V24.3802H15.2402V27.4402H18.2802L18.2802 36.5802H15.2402V39.6202H18.2802V42.6602H21.3202L21.3202 15.2402Z" fill="white"/>
<path d="M18.2797 57.8999H12.1797V60.9599H18.2797V57.8999Z" fill="#F67C7C"/>
<path d="M15.2397 27.4399H12.1797V30.4799H15.2397V27.4399Z" fill="white"/>
<path d="M12.1796 60.96H9.13965V64H12.1796V60.96Z" fill="#FED474"/>
<path d="M12.1796 30.4805H9.13965L9.13965 45.7205H12.1796L12.1796 42.6605H15.2396V39.6205H12.1796L12.1796 30.4805Z" fill="white"/>
<path d="M9.14004 57.8999H3.04004L3.04004 60.9599H9.14004V57.8999Z" fill="#F67C7C"/>
<path d="M3.04 60.96H0L0 64H3.04L3.04 60.96Z" fill="#FED474"/>
</g>
<defs>
<clipPath id="clip0_782_1025">
<rect width="64" height="64" fill="white"/>
</clipPath>
</defs>
</svg>
