<svg width="24" height="24" viewBox="0 0 24 24" fill="none" xmlns="http://www.w3.org/2000/svg">
<g clip-path="url(#clip0_630_2133)">
<path d="M23.4261 2.85376H22.2861V21.1463H23.4261V2.85376Z" fill="white"/>
<path d="M22.2862 21.1462H21.1387V22.2862H22.2862V21.1462Z" fill="white"/>
<path d="M22.2862 1.71375H21.1387V2.85375H22.2862V1.71375Z" fill="white"/>
<path d="M1.71373 22.2862H2.85373V23.4262H21.1387V22.2862H14.2837V19.9987H13.1437V18.8587H15.4312V17.7112H13.1437V16.575H12V13.1475H8.57248V10.86H9.71998V9.71998H10.86V7.42498H12V5.14123H13.1475V1.71373H21.1425V0.57373H2.85373V1.71373H1.71373V2.85373H0.57373V21.15H1.71373V22.2862ZM5.14123 6.28873H6.28873V8.56873H5.14123V6.28873ZM5.14123 15.4312H6.28873V16.575H7.42498V17.715H12V18.8625H7.42498V17.715H6.28873V16.575H5.14123V15.4312Z" fill="#FAA04C"/>
<path d="M18.8587 6.28876H17.7112V8.56876H18.8587V6.28876Z" fill="white"/>
<path d="M17.7113 15.4312H16.5713V16.5712H17.7113V15.4312Z" fill="white"/>
<path d="M16.5712 16.5712H15.4312V17.7112H16.5712V16.5712Z" fill="white"/>
</g>
<defs>
<clipPath id="clip0_630_2133">
<rect width="24" height="24" fill="white"/>
</clipPath>
</defs>
</svg>
