<svg width="24" height="24" viewBox="0 0 24 24" fill="none" xmlns="http://www.w3.org/2000/svg">
<path d="M22.8563 17.145H19.4288V15.9975H20.5688V14.8575H3.4313V15.9975H4.57505V17.145H1.1438V24H22.8563V17.145ZM5.7113 15.9975H18.2813V17.145H5.7113V15.9975ZM21.7163 22.86H2.2838V18.285H21.7163V22.86Z" fill="#83C5E0"/>
<path d="M21.7163 1.14001H20.5688V14.8575H21.7163V1.14001Z" fill="#83C5E0"/>
<path d="M17.1412 21.7125H18.2812V20.5725H19.4287V19.425H13.7137V20.5725H17.1412V21.7125Z" fill="#83C5E0"/>
<path d="M16.0013 4.57501H14.8538V5.71501H16.0013V4.57501Z" fill="white"/>
<path d="M9.13878 4.57501H7.99878V5.71501H9.13878V4.57501Z" fill="white"/>
<path d="M16.0013 6.85503H14.8538V5.71503H9.13876V6.85503H7.99876V8.00253H6.85876V11.43H7.99876V9.14253H9.13876V11.43H10.2863V10.2825H13.7138V11.43H14.8538V9.14253H16.0013V11.43H17.1413V8.00253H16.0013V6.85503ZM11.4263 8.00253H10.2863V6.85503H11.4263V8.00253ZM13.7138 8.00253H12.5738V6.85503H13.7138V8.00253Z" fill="white"/>
<path d="M4.57507 13.7175H19.4326V2.28748H4.57507V13.7175ZM5.71132 3.42748H18.2813V12.57H5.71132V3.42748Z" fill="#83C5E0"/>
<path d="M5.71129 19.425H4.57129V20.5725H5.71129V19.425Z" fill="#83C5E0"/>
<path d="M20.5688 0H3.43127V1.14H20.5688V0Z" fill="#83C5E0"/>
<path d="M3.43131 1.14001H2.28381V14.8575H3.43131V1.14001Z" fill="#83C5E0"/>
</svg>
