<svg width="24" height="24" viewBox="0 0 24 24" fill="none" xmlns="http://www.w3.org/2000/svg">
<path d="M24 19.2H22.86V20.3971H24V19.2Z" fill="#7EF288"/>
<path d="M23.9999 10.7971V8.39511H22.8599V9.60003H21.7124V7.19806H20.5724V12.002H19.4249V10.7971H18.2849V13.199H20.5724V16.7981H14.8574V18.003H23.9999V16.7981H21.7124V10.7971H23.9999Z" fill="white"/>
<path d="M24 0H21.7125V1.19705H24V0Z" fill="#7EF288"/>
<path d="M20.5724 19.2H19.4249V20.3971H20.5724V19.2Z" fill="#7EF288"/>
<path d="M20.5725 2.40192H18.285V3.59896H20.5725V2.40192Z" fill="#7EF288"/>
<path d="M15.9974 19.2H14.8574V20.3971H15.9974V19.2Z" fill="#7EF288"/>
<path d="M14.8574 7.19802H11.4299V8.39506H14.8574V9.59999H15.9974V3.599H14.8574V7.19802Z" fill="#7EF288"/>
<path d="M10.2825 12.002H8.00249V13.199H10.2825V14.3961H8.00249V13.199H6.85499V18.003H10.2825V19.2H6.85499V20.3971H3.42749V21.6059H4.57499V24H6.85499V22.803H5.71499V21.6059H9.14248V20.401H10.2825V21.6059H12.57V20.401H11.43V15.6049H12.57V16.802H13.7175V14.4H11.43V10.801H14.8575V9.60394H10.2825V12.002ZM10.2825 16.798H8.00249V15.601H10.2825V16.798Z" fill="#7EF288"/>
<path d="M10.2824 0H8.00244V1.19705H10.2824V0Z" fill="#7EF288"/>
<path d="M8.00248 4.79608H6.85498V7.19805H8.00248V4.79608Z" fill="#7EF288"/>
<path d="M14.8575 2.40192H5.71497V3.59896H14.8575V2.40192Z" fill="#7EF288"/>
<path d="M6.85497 18.003H5.71497V19.2H6.85497V18.003Z" fill="#7EF288"/>
<path d="M5.71495 3.599H4.57495V12.002H5.71495V3.599Z" fill="#7EF288"/>
<path d="M4.57499 12.002H3.42749V15.601H4.57499V12.002Z" fill="#7EF288"/>
<path d="M3.42747 19.2H2.28748V20.3971H3.42747V19.2Z" fill="#7EF288"/>
<path d="M3.42747 15.6011H2.28748V16.7981H3.42747V15.6011Z" fill="#7EF288"/>
<path d="M2.28751 18.003H1.14001V19.2H2.28751V18.003Z" fill="#7EF288"/>
<path d="M2.2875 3.599H0V4.79605H2.2875V3.599Z" fill="#7EF288"/>
<path d="M1.14 15.601H2.2875V14.3961H1.14V13.199H0V18.003H1.14V15.601Z" fill="#7EF288"/>
</svg>
