<svg width="48" height="48" viewBox="0 0 48 48" fill="none" xmlns="http://www.w3.org/2000/svg">
<path d="M47.9997 24.0073H45.7197V35.4373H47.9997V24.0073Z" fill="#88D98A"/>
<path d="M47.9997 10.2822H45.7197V17.1522H47.9997V10.2822Z" fill="#8DFF8F"/>
<path d="M45.7198 35.4375H43.4248V37.7175H45.7198V35.4375Z" fill="white"/>
<path d="M43.4248 14.8574H41.1448V17.1524H38.8648V19.4324H36.5698V21.7124H34.2898V24.0074H32.0098V26.2874H34.2898V28.5674H36.5698V26.2874H38.8648V24.0074H41.1448V21.7124H43.4248V19.4324H45.7198V17.1524H43.4248V14.8574Z" fill="#8DFF8F"/>
<path d="M45.7202 8.00244H38.8652V10.2824H45.7202V8.00244Z" fill="white"/>
<path d="M43.4252 37.7173H4.5752V39.9973H43.4252V37.7173Z" fill="#88D98A"/>
<path d="M36.5698 8.00244H32.0098V10.2824H36.5698V8.00244Z" fill="#88D98A"/>
<path d="M27.4346 28.5674V21.7124H25.1396V30.8624H34.2896V28.5674H27.4346Z" fill="#8DFF8F"/>
<path d="M29.7146 24.0072H32.0096V21.7122H34.2896V19.4322H36.5696V17.1522H38.8646V14.8572H41.1446V12.5772H38.8646V10.2822H36.5696V12.5772H34.2896V14.8572H32.0096V17.1522H29.7146V19.4322H27.4346V21.7122H29.7146V24.0072Z" fill="white"/>
<path d="M32.0098 10.2822H29.7148V12.5772H32.0098V10.2822Z" fill="#88D98A"/>
<path d="M29.7146 12.5776H27.4346V14.8576H29.7146V12.5776Z" fill="#88D98A"/>
<path d="M25.1404 30.8623H22.8604V33.1423H25.1404V30.8623Z" fill="#88D98A"/>
<path d="M18.2849 30.8623H16.0049V33.1423H18.2849V30.8623Z" fill="#8DFF8F"/>
<path d="M11.4304 30.8623H9.15039V33.1423H11.4304V30.8623Z" fill="#88D98A"/>
<path d="M25.1402 17.1523H4.5752V19.4323H25.1402V17.1523Z" fill="white"/>
<path d="M4.57492 35.4375H2.29492V37.7175H4.57492V35.4375Z" fill="white"/>
<path d="M4.57492 19.4326H2.29492V21.7126H4.57492V19.4326Z" fill="white"/>
<path d="M2.295 21.7124H0V35.4374H2.295V21.7124Z" fill="white"/>
</svg>
