<svg width="80" height="80" viewBox="0 0 80 80" fill="none" xmlns="http://www.w3.org/2000/svg">
<path d="M74.2873 19.05H70.4873V60.95H74.2873V19.05Z" fill="#CCD3D9"/>
<path d="M70.4874 60.95H66.6624V64.75H70.4874V60.95Z" fill="#CCD3D9"/>
<path d="M70.4874 15.225H66.6624V19.05H70.4874V15.225Z" fill="#CCD3D9"/>
<path d="M66.6625 11.425H51.4375V15.225H66.6625V11.425Z" fill="#CCD3D9"/>
<path d="M51.4375 64.75V53.325H47.6125V57.15H43.8125V60.95H40.0125V64.75H36.1875V68.575H40.0125V72.375H43.8125V76.2H47.6125V80H51.4375V68.575H66.6625V64.75H51.4375Z" fill="#CCD3D9"/>
<path d="M36.1874 19.05H40.0124V15.225H43.8124V11.425H40.0124V7.625H36.1874V3.8H32.3874V0H28.5874V11.425H13.3374V15.225H28.5874V26.675H32.3874V22.85H36.1874V19.05Z" fill="#CCD3D9"/>
<path d="M28.5874 64.75H13.3374V68.575H28.5874V64.75Z" fill="#CCD3D9"/>
<path d="M13.3374 60.95H9.53735V64.75H13.3374V60.95Z" fill="#CCD3D9"/>
<path d="M13.3374 15.225H9.53735V19.05H13.3374V15.225Z" fill="#CCD3D9"/>
<path d="M9.5374 19.05H5.7124V60.95H9.5374V19.05Z" fill="#CCD3D9"/>
</svg>
